ISO-10303-21;
HEADER;
FILE_DESCRIPTION(('FreeCAD Model'),'2;1');
FILE_NAME('Open CASCADE Shape Model','2026-09-26T09:27:40',('Author'),(
    ''),'Open CASCADE STEP processor 7.8','FreeCAD','Unknown');
FILE_SCHEMA(('AUTOMOTIVE_DESIGN { 1 0 10303 214 1 1 1 1 }'));
ENDSEC;
DATA;
#1 = APPLICATION_PROTOCOL_DEFINITION('international standard',
  'automotive_design',2000,#2);
#2 = APPLICATION_CONTEXT(
  'core data for automotive mechanical design processes');
#3 = SHAPE_DEFINITION_REPRESENTATION(#4,#10);
#4 = PRODUCT_DEFINITION_SHAPE('','',#5);
#5 = PRODUCT_DEFINITION('design','',#6,#9);
#6 = PRODUCT_DEFINITION_FORMATION('','',#7);
#7 = PRODUCT('shim-plug','shim-plug','',(#8));
#8 = PRODUCT_CONTEXT('',#2,'mechanical');
#9 = PRODUCT_DEFINITION_CONTEXT('part definition',#2,'design');
#10 = ADVANCED_BREP_SHAPE_REPRESENTATION('',(#11,#15),#231);
#11 = AXIS2_PLACEMENT_3D('',#12,#13,#14);
#12 = CARTESIAN_POINT('',(0.,0.,0.));
#13 = DIRECTION('',(0.,0.,1.));
#14 = DIRECTION('',(1.,0.,-0.));
#15 = MANIFOLD_SOLID_BREP('',#16);
#16 = CLOSED_SHELL('',(#17,#188,#213,#222));
#17 = ADVANCED_FACE('',(#18),#183,.T.);
#18 = FACE_BOUND('',#19,.F.);
#19 = EDGE_LOOP('',(#20,#30,#37,#38));
#20 = ORIENTED_EDGE('',*,*,#21,.F.);
#21 = EDGE_CURVE('',#22,#24,#26,.T.);
#22 = VERTEX_POINT('',#23);
#23 = CARTESIAN_POINT('',(2.65,0.,1.));
#24 = VERTEX_POINT('',#25);
#25 = CARTESIAN_POINT('',(2.65,0.,7.949706173931));
#26 = LINE('',#27,#28);
#27 = CARTESIAN_POINT('',(2.65,0.,0.));
#28 = VECTOR('',#29,1.);
#29 = DIRECTION('',(0.,0.,1.));
#30 = ORIENTED_EDGE('',*,*,#31,.F.);
#31 = EDGE_CURVE('',#22,#22,#32,.T.);
#32 = CIRCLE('',#33,2.65);
#33 = AXIS2_PLACEMENT_3D('',#34,#35,#36);
#34 = CARTESIAN_POINT('',(0.,0.,1.));
#35 = DIRECTION('',(0.,0.,1.));
#36 = DIRECTION('',(1.,0.,0.));
#37 = ORIENTED_EDGE('',*,*,#21,.T.);
#38 = ORIENTED_EDGE('',*,*,#39,.T.);
#39 = EDGE_CURVE('',#24,#24,#40,.T.);
#40 = B_SPLINE_CURVE_WITH_KNOTS('',8,(#41,#42,#43,#44,#45,#46,#47,#48,
    #49,#50,#51,#52,#53,#54,#55,#56,#57,#58,#59,#60,#61,#62,#63,#64,#65,
    #66,#67,#68,#69,#70,#71,#72,#73,#74,#75,#76,#77,#78,#79,#80,#81,#82,
    #83,#84,#85,#86,#87,#88,#89,#90,#91,#92,#93,#94,#95,#96,#97,#98,#99,
    #100,#101,#102,#103,#104,#105,#106,#107,#108,#109,#110,#111,#112,
    #113,#114,#115,#116,#117,#118,#119,#120,#121,#122,#123,#124,#125,
    #126,#127,#128,#129,#130,#131,#132,#133,#134,#135,#136,#137,#138,
    #139,#140,#141,#142,#143,#144,#145,#146,#147,#148,#149,#150,#151,
    #152,#153,#154,#155,#156,#157,#158,#159,#160,#161,#162,#163,#164,
    #165,#166,#167,#168,#169,#170,#171,#172,#173,#174,#175,#176,#177,
    #178,#179,#180,#181,#182),.UNSPECIFIED.,.T.,.F.,(9,7,7,7,7,7,7,7,7,7
    ,7,7,7,7,7,7,7,7,7,7,9),(0.,4.082490904764E-02,9.18798374231E-02,
    0.19150229471,0.22404626213,0.275711712688,0.297301585237,
    0.356626904789,0.409014120652,0.456629062844,0.496702458439,
    0.55466420183,0.585159864297,0.638330105259,0.699499797008,
    0.752364816676,0.78441204385,0.805319503614,0.907267538461,
    0.958472699784,1.),.UNSPECIFIED.);
#41 = CARTESIAN_POINT('',(2.65,-8.881784197001E-16,7.949706173931));
#42 = CARTESIAN_POINT('',(2.65,8.897566976018E-02,7.949706173931));
#43 = CARTESIAN_POINT('',(2.646585904238,0.175967232574,7.940779953547)
  );
#44 = CARTESIAN_POINT('',(2.6400235741,0.261365105111,7.92362389404));
#45 = CARTESIAN_POINT('',(2.630464202049,0.345381581047,7.899140964767)
  );
#46 = CARTESIAN_POINT('',(2.618016116319,0.427963858855,7.868443677202)
  );
#47 = CARTESIAN_POINT('',(2.602850733306,0.508751742517,7.832838208318)
  );
#48 = CARTESIAN_POINT('',(2.585310031925,0.587075661851,7.793797371198)
  );
#49 = CARTESIAN_POINT('',(2.541812776017,0.75567806488,7.701822218518));
#50 = CARTESIAN_POINT('',(2.514047034442,0.847140858185,7.646162538115)
  );
#51 = CARTESIAN_POINT('',(2.482885161149,0.936340275219,7.587442720446)
  );
#52 = CARTESIAN_POINT('',(2.448501342738,1.02326547406,7.526817124306));
#53 = CARTESIAN_POINT('',(2.411012218391,1.108037738644,7.465029912389)
  );
#54 = CARTESIAN_POINT('',(2.370392863666,1.190952916106,7.402446543078)
  );
#55 = CARTESIAN_POINT('',(2.32640189411,1.272449849772,7.339152662292));
#56 = CARTESIAN_POINT('',(2.185255922861,1.510153964094,7.150066333078)
  );
#57 = CARTESIAN_POINT('',(2.079154809078,1.660620182382,7.024535029599)
  );
#58 = CARTESIAN_POINT('',(1.959161862755,1.805839997148,6.899999000036)
  );
#59 = CARTESIAN_POINT('',(1.82357252366,1.945870954421,6.777412922567));
#60 = CARTESIAN_POINT('',(1.670420902817,2.079772685631,6.658521230235)
  );
#61 = CARTESIAN_POINT('',(1.497730073839,2.205373809708,6.545871118853)
  );
#62 = CARTESIAN_POINT('',(1.303711004128,2.319306541686,6.443135992812)
  );
#63 = CARTESIAN_POINT('',(1.016521625908,2.448509072484,6.326644672727)
  );
#64 = CARTESIAN_POINT('',(0.943250008213,2.478629479784,6.299488844979)
  );
#65 = CARTESIAN_POINT('',(0.867508834823,2.506807413248,6.274107494625)
  );
#66 = CARTESIAN_POINT('',(0.78939629054,2.532804130595,6.250738029838));
#67 = CARTESIAN_POINT('',(0.709022537556,2.556390628985,6.229608877893)
  );
#68 = CARTESIAN_POINT('',(0.626509563384,2.577347399338,6.210939189395)
  );
#69 = CARTESIAN_POINT('',(0.541991028792,2.595464180651,6.194938542507)
  );
#70 = CARTESIAN_POINT('',(0.318480542204,2.634473005197,6.160958995725)
  );
#71 = CARTESIAN_POINT('',(0.177129741349,2.650659217235,6.147413140092)
  );
#72 = CARTESIAN_POINT('',(3.332269384847E-02,2.658188410984,
    6.142053147313));
#73 = CARTESIAN_POINT('',(-0.111120278675,2.656620291119,6.14531319151)
  );
#74 = CARTESIAN_POINT('',(-0.254360950544,2.645977959434,6.157172345688)
  );
#75 = CARTESIAN_POINT('',(-0.394579993618,2.62674535132,6.177153130444)
  );
#76 = CARTESIAN_POINT('',(-0.530011143577,2.599868355736,6.204323819598)
  );
#77 = CARTESIAN_POINT('',(-0.71286298451,2.552924194665,6.251086415754)
  );
#78 = CARTESIAN_POINT('',(-0.765777579102,2.537960962623,6.26592237945)
  );
#79 = CARTESIAN_POINT('',(-0.81769400388,2.521933266485,6.281750487884)
  );
#80 = CARTESIAN_POINT('',(-0.868591937865,2.504904324008,6.298508803337)
  );
#81 = CARTESIAN_POINT('',(-0.918453249886,2.486937226742,6.316135356319)
  );
#82 = CARTESIAN_POINT('',(-0.967261998583,2.468094940036,6.334568145558)
  );
#83 = CARTESIAN_POINT('',(-1.015004432403,2.448440303033,6.353745138012)
  );
#84 = CARTESIAN_POINT('',(-1.189895303186,2.371968532481,6.428173802836)
  );
#85 = CARTESIAN_POINT('',(-1.310075629677,2.310200490491,6.487933386783)
  );
#86 = CARTESIAN_POINT('',(-1.422497773652,2.243778763082,6.551844357027)
  );
#87 = CARTESIAN_POINT('',(-1.527530764799,2.173549265732,6.619050107346)
  );
#88 = CARTESIAN_POINT('',(-1.625596143086,2.100172012283,6.688864885835)
  );
#89 = CARTESIAN_POINT('',(-1.717141341004,2.024132571578,6.760759425804)
  );
#90 = CARTESIAN_POINT('',(-1.802615162887,1.945749937447,6.834343410706)
  );
#91 = CARTESIAN_POINT('',(-1.95293940784,1.794034256172,6.975574716599)
  );
#92 = CARTESIAN_POINT('',(-2.019005936093,1.721209417299,7.042884460856)
  );
#93 = CARTESIAN_POINT('',(-2.080857826081,1.646906150247,7.111003151932)
  );
#94 = CARTESIAN_POINT('',(-2.138703677859,1.571254804655,7.179701720768)
  );
#95 = CARTESIAN_POINT('',(-2.19273631033,1.494329533211,7.2487810471));
#96 = CARTESIAN_POINT('',(-2.243124683436,1.416154731742,7.318050840757)
  );
#97 = CARTESIAN_POINT('',(-2.290009243704,1.336704611167,7.387299240315)
  );
#98 = CARTESIAN_POINT('',(-2.37303023904,1.182448553829,7.518925584156)
  );
#99 = CARTESIAN_POINT('',(-2.409402880404,1.108535878968,7.580793267662)
  );
#100 = CARTESIAN_POINT('',(-2.443058875183,1.03362884205,7.642086893224)
  );
#101 = CARTESIAN_POINT('',(-2.474236803338,0.957239448073,7.702886753915
    ));
#102 = CARTESIAN_POINT('',(-2.502966376581,0.879052695387,7.762984218029
    ));
#103 = CARTESIAN_POINT('',(-2.529137917327,0.798968417794,7.821773160552
    ));
#104 = CARTESIAN_POINT('',(-2.552590541824,0.717067333922,7.878205320385
    ));
#105 = CARTESIAN_POINT('',(-2.590473534521,0.563197343982,7.975144656889
    ));
#106 = CARTESIAN_POINT('',(-2.606340898818,0.489288507766,8.018284780833
    ));
#107 = CARTESIAN_POINT('',(-2.620188878652,0.412681175771,8.058494330839
    ));
#108 = CARTESIAN_POINT('',(-2.631646517014,0.334058875598,8.093988073968
    ));
#109 = CARTESIAN_POINT('',(-2.640521384009,0.25377319849,8.123008999369)
  );
#110 = CARTESIAN_POINT('',(-2.646700019464,0.171754522069,8.14387492439)
  );
#111 = CARTESIAN_POINT('',(-2.65,8.747725493505E-02,8.155019535793));
#112 = CARTESIAN_POINT('',(-2.65,-0.126526193445,8.155019535793));
#113 = CARTESIAN_POINT('',(-2.64309623583,-0.244704444804,8.131704810026
    ));
#114 = CARTESIAN_POINT('',(-2.630880170724,-0.358004789126,
    8.090447222311));
#115 = CARTESIAN_POINT('',(-2.613650136378,-0.467920987261,
    8.036428458144));
#116 = CARTESIAN_POINT('',(-2.591711165055,-0.57434887044,7.974195311557
    ));
#117 = CARTESIAN_POINT('',(-2.565669603319,-0.676787263436,
    7.907250925787));
#118 = CARTESIAN_POINT('',(-2.536080622556,-0.775136328943,
    7.837896185733));
#119 = CARTESIAN_POINT('',(-2.485886168498,-0.919592056251,
    7.730182076385));
#120 = CARTESIAN_POINT('',(-2.467515588453,-0.968808586788,
    7.692382221865));
#121 = CARTESIAN_POINT('',(-2.448097061301,-1.017438611355,
    7.654100689195));
#122 = CARTESIAN_POINT('',(-2.42763921202,-1.065498869803,7.615471411631
    ));
#123 = CARTESIAN_POINT('',(-2.406139086264,-1.113021550389,
    7.576586354907));
#124 = CARTESIAN_POINT('',(-2.383580056951,-1.160051027771,
    7.537503387961));
#125 = CARTESIAN_POINT('',(-2.359929730871,-1.206640601,7.498254153672)
  );
#126 = CARTESIAN_POINT('',(-2.291912363748,-1.333415575027,
    7.390152818218));
#127 = CARTESIAN_POINT('',(-2.245320061049,-1.412632151844,
    7.321152187297));
#128 = CARTESIAN_POINT('',(-2.195252518442,-1.490581556766,
    7.252122769307));
#129 = CARTESIAN_POINT('',(-2.141571877556,-1.567290081129,
    7.183275551781));
#130 = CARTESIAN_POINT('',(-2.084111969196,-1.642734882154,
    7.114799214749));
#131 = CARTESIAN_POINT('',(-2.022682854968,-1.716844359547,
    7.046890359083));
#132 = CARTESIAN_POINT('',(-1.957078791723,-1.789491739369,6.97977453574
    ));
#133 = CARTESIAN_POINT('',(-1.806570590602,-1.942152439375,
    6.837723436559));
#134 = CARTESIAN_POINT('',(-1.720286123922,-2.021591025291,
    6.763167560341));
#135 = CARTESIAN_POINT('',(-1.627793509297,-2.098640475177,
    6.690328884345));
#136 = CARTESIAN_POINT('',(-1.528627378215,-2.172973446425,
    6.619609285934));
#137 = CARTESIAN_POINT('',(-1.422323465426,-2.244087970435,
    6.551556145568));
#138 = CARTESIAN_POINT('',(-1.308444629924,-2.311299153781,
    6.486880996519));
#139 = CARTESIAN_POINT('',(-1.186609134603,-2.373727011675,6.42647476148
    ));
#140 = CARTESIAN_POINT('',(-0.944094558959,-2.479155909175,
    6.323838929909));
#141 = CARTESIAN_POINT('',(-0.824303134371,-2.524166214248,6.27974641055
    ));
#142 = CARTESIAN_POINT('',(-0.69791878134,-2.563922010496,6.240497801222
    ));
#143 = CARTESIAN_POINT('',(-0.565806232195,-2.597246952461,
    6.207250905208));
#144 = CARTESIAN_POINT('',(-0.428913384833,-2.623173889502,
    6.180959799526));
#145 = CARTESIAN_POINT('',(-0.288258895939,-2.640942734586,
    6.162370177965));
#146 = CARTESIAN_POINT('',(-0.144917063702,-2.65,6.152015783491));
#147 = CARTESIAN_POINT('',(8.784996375642E-02,-2.65,6.14912484346));
#148 = CARTESIAN_POINT('',(0.175610835458,-2.646671495542,6.151185700159
    ));
#149 = CARTESIAN_POINT('',(0.262909752495,-2.640026813667,6.156386814326
    ));
#150 = CARTESIAN_POINT('',(0.34937696627,-2.630132984408,6.164661970224)
  );
#151 = CARTESIAN_POINT('',(0.434647553498,-2.617112047802,6.175890859442
    ));
#152 = CARTESIAN_POINT('',(0.518363127512,-2.601141360907,6.18989951817)
  );
#153 = CARTESIAN_POINT('',(0.600173549561,-2.582453904815,6.20646076447)
  );
#154 = CARTESIAN_POINT('',(0.731646529691,-2.547563061013,6.237581764155
    ));
#155 = CARTESIAN_POINT('',(0.782662612696,-2.53273730942,6.250851294234)
  );
#156 = CARTESIAN_POINT('',(0.832764940019,-2.516916812444,6.265047761327
    ));
#157 = CARTESIAN_POINT('',(0.881933436052,-2.500157216843,6.280115503935
    ));
#158 = CARTESIAN_POINT('',(0.930149898687,-2.482514340568,6.295998663519
    ));
#159 = CARTESIAN_POINT('',(0.977397999316,-2.46404417277,6.3126411845));
#160 = CARTESIAN_POINT('',(1.023663282834,-2.444802873795,6.329986814261
    ));
#161 = CARTESIAN_POINT('',(1.289676186875,-2.327537725722,6.435712310074
    ));
#162 = CARTESIAN_POINT('',(1.487352113145,-2.212967973314,6.539059951315
    ));
#163 = CARTESIAN_POINT('',(1.663086903221,-2.086274505389,6.652751085542
    ));
#164 = CARTESIAN_POINT('',(1.818725295874,-1.951002788595,6.772928709693
    ));
#165 = CARTESIAN_POINT('',(1.956319464842,-1.809441398774,6.896927072134
    ));
#166 = CARTESIAN_POINT('',(2.077916814341,-1.662580137114,7.022927019677
    ));
#167 = CARTESIAN_POINT('',(2.185294579171,-1.510362789753,7.149957029846
    ));
#168 = CARTESIAN_POINT('',(2.326973420123,-1.271347503902,7.340000543113
    ));
#169 = CARTESIAN_POINT('',(2.370577961309,-1.190486822777,7.402779358218
    ));
#170 = CARTESIAN_POINT('',(2.410865070752,-1.108227678613,7.464857126081
    ));
#171 = CARTESIAN_POINT('',(2.44806849282,-1.02414506604,7.526146624808)
  );
#172 = CARTESIAN_POINT('',(2.482213837955,-0.937951156221,7.58629055611)
  );
#173 = CARTESIAN_POINT('',(2.513189722932,-0.849525732781,7.644566755113
    ));
#174 = CARTESIAN_POINT('',(2.540827825146,-0.758876505413,7.699857224446
    ));
#175 = CARTESIAN_POINT('',(2.58448516283,-0.590751369065,7.791962275602)
  );
#176 = CARTESIAN_POINT('',(2.602243784673,-0.511980743388,7.831413375457
    ));
#177 = CARTESIAN_POINT('',(2.617603638965,-0.430698789351,7.867426380727
    ));
#178 = CARTESIAN_POINT('',(2.630212261974,-0.347595921115,7.898495643371
    ));
#179 = CARTESIAN_POINT('',(2.639894412085,-0.263045529222,7.923286275797
    ));
#180 = CARTESIAN_POINT('',(2.646541187413,-0.177104600081,7.940663024917
    ));
#181 = CARTESIAN_POINT('',(2.65,-8.955652462372E-02,7.949706173931));
#182 = CARTESIAN_POINT('',(2.65,-8.881784197001E-16,7.949706173931));
#183 = CYLINDRICAL_SURFACE('',#184,2.65);
#184 = AXIS2_PLACEMENT_3D('',#185,#186,#187);
#185 = CARTESIAN_POINT('',(0.,0.,0.));
#186 = DIRECTION('',(-0.,-0.,-1.));
#187 = DIRECTION('',(1.,0.,0.));
#188 = ADVANCED_FACE('',(#189),#208,.T.);
#189 = FACE_BOUND('',#190,.F.);
#190 = EDGE_LOOP('',(#191,#199,#200,#201));
#191 = ORIENTED_EDGE('',*,*,#192,.F.);
#192 = EDGE_CURVE('',#22,#193,#195,.T.);
#193 = VERTEX_POINT('',#194);
#194 = CARTESIAN_POINT('',(1.65,0.,0.));
#195 = LINE('',#196,#197);
#196 = CARTESIAN_POINT('',(2.65,0.,1.));
#197 = VECTOR('',#198,1.);
#198 = DIRECTION('',(-0.707106781187,-0.,-0.707106781187));
#199 = ORIENTED_EDGE('',*,*,#31,.T.);
#200 = ORIENTED_EDGE('',*,*,#192,.T.);
#201 = ORIENTED_EDGE('',*,*,#202,.F.);
#202 = EDGE_CURVE('',#193,#193,#203,.T.);
#203 = CIRCLE('',#204,1.65);
#204 = AXIS2_PLACEMENT_3D('',#205,#206,#207);
#205 = CARTESIAN_POINT('',(0.,0.,0.));
#206 = DIRECTION('',(0.,0.,1.));
#207 = DIRECTION('',(1.,0.,0.));
#208 = CONICAL_SURFACE('',#209,2.65,0.785398163397);
#209 = AXIS2_PLACEMENT_3D('',#210,#211,#212);
#210 = CARTESIAN_POINT('',(0.,0.,1.));
#211 = DIRECTION('',(0.,0.,1.));
#212 = DIRECTION('',(1.,0.,0.));
#213 = ADVANCED_FACE('',(#214),#217,.F.);
#214 = FACE_BOUND('',#215,.F.);
#215 = EDGE_LOOP('',(#216));
#216 = ORIENTED_EDGE('',*,*,#39,.F.);
#217 = CYLINDRICAL_SURFACE('',#218,2.8);
#218 = AXIS2_PLACEMENT_3D('',#219,#220,#221);
#219 = CARTESIAN_POINT('',(3.4773E-02,-3.15,8.95));
#220 = DIRECTION('',(0.,-1.,2.22044604925E-16));
#221 = DIRECTION('',(1.,0.,0.));
#222 = ADVANCED_FACE('',(#223),#226,.F.);
#223 = FACE_BOUND('',#224,.F.);
#224 = EDGE_LOOP('',(#225));
#225 = ORIENTED_EDGE('',*,*,#202,.T.);
#226 = PLANE('',#227);
#227 = AXIS2_PLACEMENT_3D('',#228,#229,#230);
#228 = CARTESIAN_POINT('',(-1.935056791329E-16,2.082665216394E-17,0.));
#229 = DIRECTION('',(0.,0.,1.));
#230 = DIRECTION('',(1.,0.,0.));
#231 = ( GEOMETRIC_REPRESENTATION_CONTEXT(3) 
GLOBAL_UNCERTAINTY_ASSIGNED_CONTEXT((#235)) GLOBAL_UNIT_ASSIGNED_CONTEXT
((#232,#233,#234)) REPRESENTATION_CONTEXT('Context #1',
  '3D Context with UNIT and UNCERTAINTY') );
#232 = ( LENGTH_UNIT() NAMED_UNIT(*) SI_UNIT(.MILLI.,.METRE.) );
#233 = ( NAMED_UNIT(*) PLANE_ANGLE_UNIT() SI_UNIT($,.RADIAN.) );
#234 = ( NAMED_UNIT(*) SI_UNIT($,.STERADIAN.) SOLID_ANGLE_UNIT() );
#235 = UNCERTAINTY_MEASURE_WITH_UNIT(LENGTH_MEASURE(1.E-07),#232,
  'distance_accuracy_value','confusion accuracy');
#236 = PRODUCT_RELATED_PRODUCT_CATEGORY('part',$,(#7));
#237 = MECHANICAL_DESIGN_GEOMETRIC_PRESENTATION_REPRESENTATION('',(#238)
  ,#231);
#238 = STYLED_ITEM('color',(#239),#15);
#239 = PRESENTATION_STYLE_ASSIGNMENT((#240,#246));
#240 = SURFACE_STYLE_USAGE(.BOTH.,#241);
#241 = SURFACE_SIDE_STYLE('',(#242));
#242 = SURFACE_STYLE_FILL_AREA(#243);
#243 = FILL_AREA_STYLE('',(#244));
#244 = FILL_AREA_STYLE_COLOUR('',#245);
#245 = COLOUR_RGB('',0.447058818107,0.474509808674,0.501960817233);
#246 = CURVE_STYLE('',#247,POSITIVE_LENGTH_MEASURE(0.1),#248);
#247 = DRAUGHTING_PRE_DEFINED_CURVE_FONT('continuous');
#248 = COLOUR_RGB('',9.803921802644E-02,9.803921802644E-02,
  9.803921802644E-02);
ENDSEC;
END-ISO-10303-21;
